Coordinates
version=1
nRows=17
nColumns=40
inDegrees=yes
endheader
time	pelvis_tilt	pelvis_list	pelvis_rotation	pelvis_tx	pelvis_ty	pelvis_tz	hip_flexion_r	hip_adduction_r	hip_rotation_r	knee_angle_r	knee_angle_r_beta	ankle_angle_r	subtalar_angle_r	mtp_angle_r	hip_flexion_l	hip_adduction_l	hip_rotation_l	knee_angle_l	knee_angle_l_beta	ankle_angle_l	subtalar_angle_l	mtp_angle_l	lumbar_extension	lumbar_bending	lumbar_rotation	arm_flex_r	arm_add_r	arm_rot_r	elbow_flex_r	pro_sup_r	wrist_flex_r	wrist_dev_r	arm_flex_l	arm_add_l	arm_rot_l	elbow_flex_l	pro_sup_l	wrist_flex_l	wrist_dev_l
1760625421.04394102	     10.28213271	     -1.45658998	      0.37055458	      0.14761940	      0.85233732	      0.00194504	     80.00000000	     -7.00000000	      0.00000000	     80.00000000	      1.39626340	      0.00000000	      0.00000000	      0.00000000	     80.00000000	     -7.00000000	      0.00000000	     80.00000000	      1.39626340	      0.00000000	      0.00000000	      0.00000000	    -18.83354371	     -1.25860782	      2.32416869	     -1.65158095	    -11.95311798	      4.63540657	    110.44962180	    172.30924995	     -5.34695368	     27.92209773	     -5.21263443	    -11.34298818	     -0.80435162	    113.28722526	    179.99984796	     12.78179617	     26.80386944
1760625421.05394101	     10.28244645	     -1.45592597	      0.37038504	      0.14763220	      0.85235215	      0.00193260	     80.00000000	     -7.00000000	      0.00000000	     80.00000000	      1.39626340	      0.00000000	      0.00000000	      0.00000000	     80.00000000	     -7.00000000	      0.00000000	     80.00000000	      1.39626340	      0.00000000	      0.00000000	      0.00000000	    -18.83311907	     -1.25765892	      2.32409050	     -1.65128392	    -11.95341966	      4.63519248	    110.44951593	    172.30912783	     -5.34699137	     27.92208260	     -5.21212833	    -11.34305963	     -0.80454057	    113.28800984	    179.99984796	     12.78153303	     26.80385797
1760625421.06394100	     10.28292793	     -1.45521469	      0.37021925	      0.14764475	      0.85236275	      0.00191092	     80.00000000	     -7.00000000	      0.00000000	     80.00000000	      1.39626340	      0.00000000	      0.00000000	      0.00000000	     80.00000000	     -7.00000000	      0.00000000	     80.00000000	      1.39626340	      0.00000000	      0.00000000	      0.00000000	    -18.83254919	     -1.25664753	      2.32410057	     -1.65089345	    -11.95364436	      4.63502240	    110.44944221	    172.30900924	     -5.34702993	     27.92206284	     -5.21148193	    -11.34319730	     -0.80480546	    113.28887427	    179.99984796	     12.78126603	     26.80385060
1760625421.07394099	     10.28343546	     -1.45441042	      0.37014744	      0.14764460	      0.85234768	      0.00190160	     80.00000000	     -7.00000000	      0.00000000	     80.00000000	      1.39626340	      0.00000000	      0.00000000	      0.00000000	     80.00000000	     -7.00000000	      0.00000000	     80.00000000	      1.39626340	      0.00000000	      0.00000000	      0.00000000	    -18.83216678	     -1.25558674	      2.32411963	     -1.65042850	    -11.95381251	      4.63489827	    110.44939932	    172.30889391	     -5.34706934	     27.92203963	     -5.21119639	    -11.34324336	     -0.80486244	    113.28949902	    179.99984796	     12.78102593	     26.80383906
1760625421.08394098	     10.29277779	     -1.44154311	      0.36771183	      0.14768935	      0.85237272	      0.00177796	     80.00000000	     -7.00000000	      0.00000000	     80.00000000	      1.39626340	      0.00000000	      0.00000000	      0.00000000	     80.00000000	     -7.00000000	      0.00000000	     80.00000000	      1.39626340	      0.00000000	      0.00000000	      0.00000000	    -18.82254935	     -1.23586567	      2.32194902	     -1.63962590	    -11.95837700	      4.63213174	    110.45048901	    172.30617313	     -5.34809409	     27.92143838	     -5.19906268	    -11.34474158	     -0.80840044	    113.30593597	    179.99984796	     12.77537111	     26.80350275
1760625421.09394097	     10.29210338	     -1.44246199	      0.36795034	      0.14773313	      0.85234022	      0.00172378	     80.00000000	     -7.00000000	      0.00000000	     80.00000000	      1.39626340	      0.00000000	      0.00000000	      0.00000000	     80.00000000	     -7.00000000	      0.00000000	     80.00000000	      1.39626340	      0.00000000	      0.00000000	      0.00000000	    -18.82324123	     -1.23604862	      2.32193027	     -1.63877794	    -11.95845159	      4.63214631	    110.45059988	    172.30598030	     -5.34816687	     27.92137881	     -5.19825385	    -11.34484409	     -0.80868673	    113.30675192	    179.99984796	     12.77496438	     26.80347936
1760625421.10394096	     10.29211338	     -1.44223672	      0.36779326	      0.14776001	      0.85237132	      0.00170622	     80.00000000	     -7.00000000	      0.00000000	     80.00000000	      1.39626340	      0.00000000	      0.00000000	      0.00000000	     80.00000000	     -7.00000000	      0.00000000	     80.00000000	      1.39626340	      0.00000000	      0.00000000	      0.00000000	    -18.82287459	     -1.23539685	      2.32175813	     -1.63827468	    -11.95847827	      4.63216369	    110.45077848	    172.30587880	     -5.34821452	     27.92134377	     -5.19705342	    -11.34489362	     -0.80902980	    113.30772683	    179.99984796	     12.77468916	     26.80347144
1760625421.11394095	     10.29231625	     -1.44185151	      0.36760823	      0.14777547	      0.85237947	      0.00169333	     80.00000000	     -7.00000000	      0.00000000	     80.00000000	      1.39626340	      0.00000000	      0.00000000	      0.00000000	     80.00000000	     -7.00000000	      0.00000000	     80.00000000	      1.39626340	      0.00000000	      0.00000000	      0.00000000	    -18.82251330	     -1.23459139	      2.32157807	     -1.63776199	    -11.95841980	      4.63222152	    110.45097427	    172.30577931	     -5.34826249	     27.92130532	     -5.19594173	    -11.34493810	     -0.80931569	    113.30860395	    179.99984796	     12.77443930	     26.80345841
1760625421.12394094	     10.29696866	     -1.43645616	      0.36617405	      0.14777097	      0.85230237	      0.00157819	     80.00000000	     -7.00000000	      0.00000000	     80.00000000	      1.39626340	      0.00000000	      0.00000000	      0.00000000	     80.00000000	     -7.00000000	      0.00000000	     80.00000000	      1.39626340	      0.00000000	      0.00000000	      0.00000000	    -18.81636226	     -1.21259277	      2.31378710	     -1.61906689	    -11.95723885	      4.63518087	    110.46062578	    172.30166348	     -5.35029030	     27.91969155	     -5.16053300	    -11.34685056	     -0.81785126	    113.33808895	    179.99984796	     12.76456329	     26.80287067
1760625421.13394094	     10.29591743	     -1.43661250	      0.36632817	      0.14780688	      0.85232939	      0.00160815	     80.00000000	     -7.00000000	      0.00000000	     80.00000000	      1.39626340	      0.00000000	      0.00000000	      0.00000000	     80.00000000	     -7.00000000	      0.00000000	     80.00000000	      1.39626340	      0.00000000	      0.00000000	      0.00000000	    -18.81693368	     -1.21262022	      2.31373266	     -1.61845176	    -11.95716075	      4.63522351	    110.46094785	    172.30156584	     -5.35033863	     27.91965241	     -5.15987678	    -11.34689911	     -0.81802739	    113.33861294	    179.99984796	     12.76434437	     26.80285661
1760625421.14394093	     10.28568431	     -1.43532956	      0.36667101	      0.14770942	      0.85234600	      0.00149079	     80.00000000	     -7.00000000	      0.00000000	     80.00000000	      1.39626340	      0.00000000	      0.00000000	      0.00000000	     80.00000000	     -7.00000000	      0.00000000	     80.00000000	      1.39626340	      0.00000000	      0.00000000	      0.00000000	    -18.82650429	     -1.19296069	      2.30582497	     -1.61048283	    -11.94304860	      4.64299630	    110.46810328	    172.29929681	     -5.35236680	     27.91845641	     -5.13298715	    -11.34560806	     -0.82363957	    113.36063526	    179.99984796	     12.75551845	     26.80220659
1760625421.15394092	     10.28530023	     -1.43617848	      0.36690436	      0.14773460	      0.85236127	      0.00147280	     80.00000000	     -7.00000000	      0.00000000	     80.00000000	      1.39626340	      0.00000000	      0.00000000	      0.00000000	     80.00000000	     -7.00000000	      0.00000000	     80.00000000	      1.39626340	      0.00000000	      0.00000000	      0.00000000	    -18.82670789	     -1.19328473	      2.30563768	     -1.60987611	    -11.94279942	      4.64292262	    110.46846309	    172.29922566	     -5.35242992	     27.91843598	     -5.13242769	    -11.34564008	     -0.82380813	    113.36104406	    179.99984796	     12.75530119	     26.80219367
1760625421.16394091	     10.28557107	     -1.43671759	      0.36666370	      0.14777114	      0.85241452	      0.00149242	     80.00000000	     -7.00000000	      0.00000000	     80.00000000	      1.39626340	      0.00000000	      0.00000000	      0.00000000	     80.00000000	     -7.00000000	      0.00000000	     80.00000000	      1.39626340	      0.00000000	      0.00000000	      0.00000000	    -18.82597102	     -1.19260838	      2.30441760	     -1.60862793	    -11.94270757	      4.64228770	    110.46931999	    172.29900180	     -5.35258013	     27.91841517	     -5.12996785	    -11.34565630	     -0.82451912	    113.36278855	    179.99984796	     12.75470001	     26.80217317
1760625421.17394090	     10.28567721	     -1.43696285	      0.36639543	      0.14777539	      0.85241420	      0.00149645	     80.00000000	     -7.00000000	      0.00000000	     80.00000000	      1.39626340	      0.00000000	      0.00000000	      0.00000000	     80.00000000	     -7.00000000	      0.00000000	     80.00000000	      1.39626340	      0.00000000	      0.00000000	      0.00000000	    -18.82585310	     -1.19226692	      2.30376243	     -1.60821355	    -11.94255516	      4.64198614	    110.46964013	    172.29891024	     -5.35264855	     27.91841504	     -5.12900602	    -11.34567906	     -0.82476768	    113.36344421	    179.99984796	     12.75446356	     26.80215888
1760625421.18394089	     10.28786394	     -1.44292527	      0.35913565	      0.14781797	      0.85231460	      0.00145770	     80.00000000	     -7.00000000	      0.00000000	     80.00000000	      1.39626340	      0.00000000	      0.00000000	      0.00000000	     80.00000000	     -7.00000000	      0.00000000	     80.00000000	      1.39626340	      0.00000000	      0.00000000	      0.00000000	    -18.82338121	     -1.17223673	      2.28118612	     -1.59168277	    -11.93307605	      4.62667183	    110.48198469	    172.29482582	     -5.35575332	     27.91869382	     -5.07917815	    -11.34954872	     -0.84162761	    113.40082441	    179.99984796	     12.74224945	     26.80189172
1760625421.19394112	     10.24855139	     -1.48092396	      0.39843455	      0.14735769	      0.85234577	      0.00153118	     80.00000000	     -7.00000000	      0.00000000	     80.00000000	      1.39626340	      0.00000000	      0.00000000	      0.00000000	     80.00000000	     -7.00000000	      0.00000000	     80.00000000	      1.39626340	      0.00000000	      0.00000000	      0.00000000	    -18.86841526	     -1.14614365	      2.25940189	     -1.54452670	    -11.89904247	      4.58025420	    110.51621082	    172.28203552	     -5.36552737	     27.91981178	     -5.02676497	    -11.35195366	     -0.86895034	    113.47429963	    179.99984796	     12.70638135	     26.80025571
1760625421.20394111	     10.24959927	     -1.48035795	      0.39829204	      0.14732941	      0.85234979	      0.00154821	     80.00000000	     -7.00000000	      0.00000000	     80.00000000	      1.39626340	      0.00000000	      0.00000000	      0.00000000	     80.00000000	     -7.00000000	      0.00000000	     80.00000000	      1.39626340	      0.00000000	      0.00000000	      0.00000000	    -18.86761671	     -1.14523642	      2.25904780	     -1.54458040	    -11.89885946	      4.58002890	    110.51637946	    172.28195562	     -5.36559242	     27.91981956	     -5.02670072	    -11.35191801	     -0.86895851	    113.47463304	    179.99984796	     12.70616285	     26.80023523
